<svg width="54" height="54" viewBox="0 0 54 54" fill="none" xmlns="http://www.w3.org/2000/svg">
<g filter="url(#filter0_d_301_165)">
<path d="M42.0635 7.82365L42.2823 8.04417L42.3964 8.0899C45.8054 11.5783 47.9252 16.1311 48.3989 20.9959C48.8824 25.9605 47.6211 30.9384 44.8329 35.0711C42.0447 39.2038 37.9045 42.2323 33.1264 43.635C28.3483 45.0378 23.2312 44.727 18.6573 42.7563L18.6573 42.7563L18.6474 42.752C17.9447 42.4553 17.1768 42.3471 16.4195 42.4383L16.3608 42.4454L16.3029 42.457L6.6524 44.399H6.34404H6.32491L6.30578 44.3995C6.19963 44.4022 6.09397 44.3834 5.99516 44.3441C5.89777 44.3053 5.80895 44.2475 5.73394 44.1737C5.6432 44.0814 5.57631 43.9679 5.53937 43.8432C5.50199 43.717 5.49649 43.5835 5.52339 43.4546L5.52368 43.4532L7.53801 33.7562L7.54335 33.7305L7.54778 33.7047C7.68391 32.9108 7.57304 32.0946 7.23054 31.3662C5.27212 26.7908 4.96548 21.6748 6.36392 16.8971C7.76497 12.1104 10.7895 7.96385 14.9156 5.17182C19.0415 2.37982 24.0106 1.11716 28.9661 1.60118C33.9217 2.0852 38.5537 4.28563 42.0635 7.82365ZM15.6832 26.1274C16.3063 26.5444 17.0392 26.7672 17.7891 26.7672C18.7947 26.7672 19.7587 26.3671 20.4691 25.6556C21.1794 24.9442 21.5781 23.9798 21.5781 22.9747C21.5781 22.2252 21.3562 21.4922 20.9401 20.8686C20.524 20.245 19.9324 19.7586 19.2398 19.4713C18.5472 19.184 17.7849 19.1087 17.0495 19.2553C16.314 19.4018 15.6388 19.7633 15.1091 20.2939C14.5793 20.8244 14.2188 21.5 14.0728 22.2353C13.9268 22.9705 14.0017 23.7326 14.2882 24.4253C14.5747 25.118 15.06 25.7105 15.6832 26.1274ZM24.8392 26.1274C25.4624 26.5444 26.1952 26.7672 26.9451 26.7672C27.9508 26.7672 28.9147 26.3671 29.6251 25.6556C30.3355 24.9442 30.7341 23.9798 30.7341 22.9747C30.7341 22.2252 30.5122 21.4922 30.0961 20.8686C29.6801 20.245 29.0884 19.7586 28.3958 19.4713C27.7032 19.184 26.9409 19.1087 26.2055 19.2553C25.4701 19.4018 24.7948 19.7633 24.2651 20.2939C23.7354 20.8244 23.3749 21.5 23.2288 22.2353C23.0828 22.9705 23.1577 23.7326 23.4442 24.4253C23.7307 25.118 24.2161 25.7105 24.8392 26.1274ZM33.9952 26.1274C34.6184 26.5444 35.3513 26.7672 36.1012 26.7672C37.1068 26.7672 38.0708 26.3671 38.7812 25.6556C39.4915 24.9442 39.8902 23.9798 39.8902 22.9747C39.8902 22.2252 39.6682 21.4922 39.2522 20.8686C38.8361 20.245 38.2445 19.7586 37.5519 19.4713C36.8592 19.184 36.097 19.1087 35.3615 19.2553C34.6261 19.4018 33.9509 19.7633 33.4211 20.2939C32.8914 20.8244 32.5309 21.5 32.3849 22.2353C32.2388 22.9705 32.3138 23.7326 32.6003 24.4253C32.8868 25.118 33.3721 25.7105 33.9952 26.1274Z" stroke="#B6B6B6" stroke-width="3"/>
</g>
<defs>
<filter id="filter0_d_301_165" x="0" y="0" width="54" height="54" filterUnits="userSpaceOnUse" color-interpolation-filters="sRGB">
<feFlood flood-opacity="0" result="BackgroundImageFix"/>
<feColorMatrix in="SourceAlpha" type="matrix" values="0 0 0 0 0 0 0 0 0 0 0 0 0 0 0 0 0 0 127 0" result="hardAlpha"/>
<feOffset dy="4"/>
<feGaussianBlur stdDeviation="2"/>
<feColorMatrix type="matrix" values="0 0 0 0 0 0 0 0 0 0 0 0 0 0 0 0 0 0 0.25 0"/>
<feBlend mode="normal" in2="BackgroundImageFix" result="effect1_dropShadow_301_165"/>
<feBlend mode="normal" in="SourceGraphic" in2="effect1_dropShadow_301_165" result="shape"/>
</filter>
</defs>
</svg>
